<svg width="226" height="61" viewBox="0 0 226 61" fill="none" xmlns="http://www.w3.org/2000/svg">
<path fill-rule="evenodd" clip-rule="evenodd" d="M4.17139 21C4.17139 16.6789 6.94108 12.4765 12.0283 9.25461C17.0906 6.04846 24.2069 4 32.1714 4C40.1358 4 47.2522 6.04846 52.3145 9.25461C57.4017 12.4765 60.1714 16.6789 60.1714 21C60.1714 23.2482 59.4216 25.4643 57.9859 27.5268C56.9129 26.5685 55.7282 25.6819 54.4547 24.8753C48.6592 21.2048 40.7755 19 32.1714 19C23.5673 19 15.6836 21.2048 9.88808 24.8753C8.61456 25.6819 7.4299 26.5685 6.35691 27.5268C4.92112 25.4643 4.17139 23.2482 4.17139 21ZM3.57864 30.5C1.43533 27.7063 0.171387 24.4932 0.171387 21C0.171387 14.8277 4.11742 9.53008 9.88808 5.87533C15.6836 2.20483 23.5673 0 32.1714 0C40.7755 0 48.6592 2.20483 54.4547 5.87533C60.2254 9.53008 64.1714 14.8277 64.1714 21C64.1714 24.4932 62.9074 27.7063 60.7641 30.5C62.9074 33.2937 64.1714 36.5068 64.1714 40C64.1714 46.1723 60.2254 51.4699 54.4547 55.1247C48.6592 58.7952 40.7755 61 32.1714 61C23.5673 61 15.6836 58.7952 9.88808 55.1247C4.11742 51.4699 0.171387 46.1723 0.171387 40C0.171387 36.5068 1.43533 33.2937 3.57864 30.5ZM57.9859 33.4732C59.4216 35.5357 60.1714 37.7518 60.1714 40C60.1714 44.3211 57.4017 48.5235 52.3145 51.7454C47.2522 54.9515 40.1358 57 32.1714 57C24.2069 57 17.0906 54.9515 12.0283 51.7454C6.94108 48.5235 4.17139 44.3211 4.17139 40C4.17139 37.7518 4.92112 35.5357 6.35692 33.4732C7.4299 34.4315 8.61456 35.3181 9.88808 36.1247C15.6836 39.7952 23.5673 42 32.1714 42C40.7755 42 48.6592 39.7952 54.4547 36.1247C55.7282 35.3181 56.9129 34.4315 57.9859 33.4732ZM55.3147 30.5C54.4286 31.2893 53.427 32.0408 52.3145 32.7454C47.2522 35.9515 40.1358 38 32.1714 38C24.2069 38 17.0906 35.9515 12.0283 32.7454C10.9158 32.0408 9.91413 31.2893 9.02803 30.5C9.91413 29.7107 10.9158 28.9592 12.0283 28.2546C17.0906 25.0485 24.2069 23 32.1714 23C40.1358 23 47.2522 25.0485 52.3145 28.2546C53.427 28.9592 54.4286 29.7107 55.3147 30.5Z" fill="black"/>
<path d="M203.699 37.1392V32H225.829V37.1392H217.89V58.1818H211.651V37.1392H203.699Z" fill="black"/>
<path d="M202.735 41.4858H196.343C196.258 40.8296 196.083 40.2373 195.819 39.7088C195.554 39.1804 195.205 38.7287 194.77 38.3537C194.336 37.9787 193.82 37.6932 193.223 37.4972C192.635 37.2927 191.983 37.1904 191.268 37.1904C189.998 37.1904 188.902 37.5015 187.982 38.1236C187.07 38.7458 186.367 39.6449 185.873 40.8211C185.387 41.9972 185.144 43.4205 185.144 45.091C185.144 46.8296 185.391 48.287 185.885 49.4631C186.388 50.6307 187.091 51.5128 187.995 52.1094C188.907 52.6975 189.985 52.9915 191.229 52.9915C191.928 52.9915 192.563 52.902 193.134 52.7231C193.714 52.5441 194.221 52.2841 194.655 51.9432C195.099 51.5938 195.461 51.1719 195.742 50.6776C196.032 50.1748 196.232 49.608 196.343 48.9773L202.735 49.0157C202.624 50.1748 202.287 51.3168 201.725 52.4418C201.171 53.5668 200.408 54.5938 199.437 55.5228C198.465 56.4432 197.28 57.1762 195.883 57.7216C194.493 58.2671 192.9 58.5398 191.101 58.5398C188.732 58.5398 186.61 58.0199 184.735 56.9802C182.868 55.9319 181.394 54.4063 180.312 52.4035C179.229 50.4006 178.688 47.9631 178.688 45.091C178.688 42.2103 179.238 39.7685 180.337 37.7657C181.437 35.7628 182.924 34.2415 184.799 33.2017C186.674 32.162 188.775 31.6421 191.101 31.6421C192.687 31.6421 194.152 31.8637 195.499 32.3069C196.846 32.7415 198.03 33.3807 199.053 34.2245C200.076 35.0597 200.907 36.0867 201.546 37.3054C202.185 38.5242 202.581 39.9177 202.735 41.4858Z" fill="black"/>
<path d="M158.551 58.1818V32H176.806V37.1392H164.879V42.5085H175.873V47.6605H164.879V53.0426H176.806V58.1818H158.551Z" fill="black"/>
<path d="M139.292 58.1818V32H157.164V37.1392H145.62V42.5085H156.026V47.6605H145.62V58.1818H139.292Z" fill="black"/>
<path d="M117.256 58.1818V32H128.071C130.031 32 131.723 32.3537 133.146 33.0611C134.578 33.7599 135.682 34.7656 136.458 36.0781C137.233 37.3821 137.621 38.929 137.621 40.7188C137.621 42.5341 137.225 44.0767 136.432 45.3466C135.639 46.608 134.514 47.571 133.057 48.2358C131.6 48.892 129.874 49.2202 127.879 49.2202H121.04V44.2344H126.703C127.658 44.2344 128.455 44.1108 129.094 43.8636C129.742 43.608 130.232 43.2244 130.564 42.7131C130.896 42.1932 131.063 41.5284 131.063 40.7188C131.063 39.9091 130.896 39.2401 130.564 38.7117C130.232 38.1747 129.742 37.7741 129.094 37.5099C128.446 37.2372 127.649 37.1009 126.703 37.1009H123.584V58.1818H117.256ZM131.996 46.2159L138.516 58.1818H131.612L125.22 46.2159H131.996Z" fill="black"/>
<path d="M96.8372 58.1818V32H115.093V37.1392H103.165V42.5085H114.16V47.6605H103.165V53.0426H115.093V58.1818H96.8372Z" fill="black"/>
<path d="M75.1528 58.1818V32H85.9682C87.9284 32 89.6202 32.3835 91.0435 33.1506C92.4753 33.9091 93.579 34.9702 94.3545 36.3338C95.1301 37.6889 95.5179 39.2656 95.5179 41.0639C95.5179 42.8707 95.1216 44.4517 94.329 45.8068C93.5449 47.1534 92.4241 48.1974 90.9668 48.9389C89.5094 49.6804 87.7793 50.0511 85.7764 50.0511H79.1031V45.0653H84.6003C85.5548 45.0653 86.3517 44.8991 86.9909 44.5668C87.6386 44.2344 88.1287 43.7699 88.4611 43.1733C88.7935 42.5682 88.9597 41.8651 88.9597 41.0639C88.9597 40.2543 88.7935 39.5554 88.4611 38.9673C88.1287 38.3707 87.6386 37.9105 86.9909 37.5867C86.3432 37.2628 85.5463 37.1009 84.6003 37.1009H81.481V58.1818H75.1528Z" fill="black"/>
<path d="M187.653 28.1818V2H205.909V7.1392H193.981V12.5085H204.975V17.6605H193.981V23.0426H205.909V28.1818H187.653Z" fill="black"/>
<path d="M165.617 28.1818V2H176.432C178.393 2 180.084 2.35369 181.508 3.06108C182.939 3.75994 184.043 4.76562 184.819 6.07812C185.594 7.3821 185.982 8.92898 185.982 10.7188C185.982 12.5341 185.586 14.0767 184.793 15.3466C184 16.608 182.875 17.571 181.418 18.2358C179.961 18.892 178.235 19.2202 176.241 19.2202H169.401V14.2344H175.064C176.019 14.2344 176.816 14.1108 177.455 13.8636C178.103 13.608 178.593 13.2244 178.925 12.7131C179.258 12.1932 179.424 11.5284 179.424 10.7188C179.424 9.90909 179.258 9.24006 178.925 8.71165C178.593 8.17472 178.103 7.77415 177.455 7.50994C176.807 7.23722 176.01 7.10085 175.064 7.10085H171.945V28.1818H165.617ZM180.357 16.2159L186.877 28.1818H179.973L173.581 16.2159H180.357Z" fill="black"/>
<path d="M157.135 2H163.451V18.8878C163.451 20.8395 162.986 22.5398 162.057 23.9886C161.128 25.429 159.833 26.5455 158.171 27.3381C156.509 28.1222 154.579 28.5142 152.38 28.5142C150.155 28.5142 148.212 28.1222 146.55 27.3381C144.888 26.5455 143.597 25.429 142.677 23.9886C141.756 22.5398 141.296 20.8395 141.296 18.8878V2H147.624V18.3381C147.624 19.2415 147.82 20.0469 148.212 20.7543C148.613 21.4616 149.171 22.0156 149.887 22.4162C150.603 22.8168 151.434 23.017 152.38 23.017C153.326 23.017 154.152 22.8168 154.86 22.4162C155.576 22.0156 156.134 21.4616 156.535 20.7543C156.935 20.0469 157.135 19.2415 157.135 18.3381V2Z" fill="black"/>
<path d="M117.876 7.1392V2H140.005V7.1392H132.066V28.1818H125.828V7.1392H117.876Z" fill="black"/>
<path d="M110.251 2H116.566V18.8878C116.566 20.8395 116.102 22.5398 115.173 23.9886C114.244 25.429 112.948 26.5455 111.286 27.3381C109.624 28.1222 107.694 28.5142 105.495 28.5142C103.271 28.5142 101.328 28.1222 99.6656 27.3381C98.0037 26.5455 96.7125 25.429 95.7921 23.9886C94.8716 22.5398 94.4114 20.8395 94.4114 18.8878V2H100.74V18.3381C100.74 19.2415 100.936 20.0469 101.328 20.7543C101.728 21.4616 102.286 22.0156 103.002 22.4162C103.718 22.8168 104.549 23.017 105.495 23.017C106.441 23.017 107.268 22.8168 107.975 22.4162C108.691 22.0156 109.249 21.4616 109.65 20.7543C110.051 20.0469 110.251 19.2415 110.251 18.3381V2Z" fill="black"/>
<path d="M75.1528 28.1818V2H93.025V7.1392H81.481V12.5085H91.8872V17.6605H81.481V28.1818H75.1528Z" fill="black"/>
</svg>
